# xmcd CD database file
#
# Track frame offsets:
#	150
#	12517
#	28990
#	46735
#	64475
#	78122
#	94704
#	110847
#	133525
#	148820
#	171672
#	184947
#	201480
#	214065
#	230265
#	245737
#
# Disc length: 3566 seconds
#
# Revision: 6
# Processed by: cddbd v1.5.2PL0 Copyright (c) Steve Scherf et al.
# Submitted via: CDex 1.95
#
DISCID=f50dec10
DTITLE=Les Freres Jacques - La Queue Du Chat, Vol. 1
DYEAR=1997
DGENRE=FR
TTITLE0=C'que C'est Beau La Photographie
TTITLE1=Shah, Shah, Shah Persan
TTITLE2=Le Complexe De La Truite
TTITLE3=Barbara
TTITLE4=Dolly 25
TTITLE5=Chanson Sans Calcium
TTITLE6=La Marie-Joseph
TTITLE7=La Violoncelliste
TTITLE8=Stanislas
TTITLE9=General A Vendre
TTITLE10=La Saint-Medard
TTITLE11=La Queue Du Chat
TTITLE12=Le Poinconneur Des Lilas
TTITLE13=Le General De Castagnetas
TTITLE14=Monsieur William
TTITLE15=Le Tango Interminable Des Perceurs De Coffres-Forts
EXTD=YEAR: 1997
EXTT0=
EXTT1=
EXTT2=
EXTT3=
EXTT4=
EXTT5=
EXTT6=
EXTT7=
EXTT8=
EXTT9=
EXTT10=
EXTT11=
EXTT12=
EXTT13=
EXTT14=
EXTT15=
PLAYORDER=
